<svg version="1.2" xmlns="http://www.w3.org/2000/svg" viewBox="0 0 296 54" width="296" height="54">
	<style>
		.s0 { fill: #003f7e } 
		.s1 { fill: none;stroke: #003f7e;stroke-width: 1.3 } 
	</style>
	<g>
		<path class="s0" d="m34.72 3.67c-13.15 0-23.83 10.7-23.83 23.87 0 11.96 8.81 21.85 20.27 23.58l1.24 0.19v-18.82h-5.63v-3.82h5.63v-5.07c0-3.12 0.75-5.18 1.99-6.47 1.24-1.29 3.07-1.94 5.62-1.94 2.04 0 2.83 0.12 3.58 0.22v3.13h-2.65c-1.5 0-2.74 0.84-3.38 1.96-0.64 1.12-0.84 2.46-0.84 3.82v4.36h6.63l-0.59 3.82h-6.04v18.84l1.23-0.17c11.63-1.58 20.61-11.55 20.61-23.63-0.01-13.17-10.69-23.87-23.84-23.87zm0 2.17c11.98 0 21.67 9.7 21.67 21.7 0 10.56-7.54 19.24-17.5 21.2v-14.08h5.73l1.26-8.16h-6.99v-2.19c0-1.13 0.21-2.13 0.55-2.74 0.35-0.61 0.68-0.87 1.5-0.87h4.82v-7.26l-0.94-0.13c-0.65-0.09-2.13-0.29-4.81-0.29-2.93 0-5.44 0.8-7.18 2.61-1.74 1.81-2.59 4.5-2.59 7.98v2.9h-5.63v8.16h5.63v14c-9.8-2.08-17.18-10.68-17.18-21.13-0.01-12 9.68-21.7 21.66-21.7z"/>
	</g>
	<g>
		<g>
			<path class="s1" d="m110.05 50.38c12.64 0 22.88-10.24 22.88-22.88 0-12.64-10.24-22.88-22.88-22.88-12.64 0-22.88 10.24-22.88 22.88 0 12.64 10.25 22.88 22.88 22.88z"/>
			<g>
				<path class="s0" d="m110.02 14.22c-3.35 0-3.77 0.01-5.08 0.07-1.91 0.09-3.8 0.62-5.18 2-1.38 1.38-1.91 3.27-2 5.18-0.06 1.32-0.07 1.74-0.07 5.08 0 3.35 0.01 3.77 0.07 5.08 0.09 1.9 0.62 3.8 2 5.18 1.38 1.38 3.27 1.91 5.18 2 1.32 0.06 1.74 0.07 5.08 0.07 3.35 0 3.77-0.01 5.08-0.07 1.91-0.09 3.8-0.62 5.18-2 1.38-1.38 1.91-3.27 2-5.18 0.06-1.32 0.07-1.74 0.07-5.08 0-3.35-0.01-3.77-0.07-5.08-0.09-1.91-0.62-3.8-2-5.18-1.38-1.38-3.28-1.91-5.18-2-1.31-0.06-1.73-0.07-5.08-0.07zm0 2.22c3.29 0 3.68 0.01 4.98 0.07 1.34 0.06 2.73 0.37 3.71 1.35 0.99 0.99 1.29 2.36 1.35 3.71 0.06 1.3 0.07 1.69 0.07 4.98 0 3.29-0.01 3.68-0.07 4.98-0.06 1.34-0.37 2.73-1.35 3.71-0.99 0.99-2.36 1.29-3.71 1.35-1.3 0.06-1.69 0.07-4.98 0.07-3.29 0-3.68-0.01-4.98-0.07-1.33-0.06-2.74-0.38-3.71-1.35-0.98-0.98-1.29-2.37-1.35-3.71-0.06-1.3-0.07-1.69-0.07-4.98 0-3.29 0.01-3.68 0.07-4.98 0.06-1.33 0.38-2.74 1.35-3.71 0.99-0.99 2.36-1.29 3.71-1.35 1.3-0.06 1.69-0.07 4.98-0.07z"/>
				<path class="s0" d="m110.02 20.21c-3.5 0-6.33 2.83-6.33 6.33 0 3.5 2.83 6.33 6.33 6.33 3.5 0 6.33-2.83 6.33-6.33 0-3.49-2.84-6.33-6.33-6.33zm0 10.45c-2.27 0-4.11-1.84-4.11-4.11 0-2.27 1.84-4.11 4.11-4.11 2.27 0 4.11 1.84 4.11 4.11 0 2.27-1.84 4.11-4.11 4.11z"/>
				<path class="s0" d="m116.6 21.44c0.82 0 1.48-0.66 1.48-1.48 0-0.82-0.66-1.48-1.48-1.48-0.82 0-1.48 0.66-1.48 1.48 0 0.82 0.66 1.48 1.48 1.48z"/>
			</g>
		</g>
	</g>
	<g>
		<g>
			<path class="s0" d="m194.71 12.98h4.76l-10.4 11.88 12.23 16.17h-9.58l-7.51-9.8-8.58 9.8h-4.77l11.14-12.71-11.73-15.34h9.82l6.78 8.96zm-1.67 25.21h2.64l-17.02-22.51h-2.83z"/>
			<path class="s1" d="m185.39 50.38c12.64 0 22.88-10.24 22.88-22.88 0-12.64-10.24-22.88-22.88-22.88-12.64 0-22.88 10.24-22.88 22.88 0 12.64 10.24 22.88 22.88 22.88z"/>
		</g>
	</g>
	<g>
		<g>
			<path fill-rule="evenodd" class="s0" d="m252.51 9.28l1.7 4.93 1.7-4.93h1.7l-2.55 7.4v4.93h-1.7v-4.93l-2.55-7.4zm9.57 3.89c0.52 0.46 0.65 1.14 0.65 1.87v4.11c0 0.82-0.11 1.38-0.64 1.84-0.52 0.48-1.01 0.63-1.92 0.63-0.87 0-1.37-0.15-1.9-0.63-0.51-0.48-0.65-1.02-0.65-1.84v-4.11c-0.03-1.12 0.12-1.46 0.65-1.89 0.56-0.44 1-0.58 1.91-0.58 0.82 0 1.37 0.12 1.9 0.6zm4.05-0.6v6.58c0 0.78 0.67 0.82 0.85 0.82 0.15 0 0.84-0.26 0.85-0.82v-6.58h1.7v9.04h-1.7v-0.82c-0.37 0.4-0.83 0.82-1.7 0.82-0.87 0-1.7-0.84-1.7-1.64v-7.4zm-6.8 2.47v4.11c0 0.81 0.59 0.82 0.85 0.82 0.27 0 0.85-0.02 0.85-0.82v-4.11c0-0.82-0.59-0.82-0.85-0.82-0.49 0-0.86 0.15-0.85 0.82zm14.47 8.22c3.06 0 5.11 1.96 5.11 4.93v8.22c0 2.97-2.05 4.93-5.11 4.93h-25.54c-3.06 0-5.11-2.37-5.11-5.34v-7.81c0-2.97 2.05-4.93 5.11-4.93zm-23.83 4.93h1.7v9.86h1.7v-9.86h1.7v-1.64h-5.11c0.01 0 0.01 1.64 0.01 1.64zm11.91-1.64c0.01 0 0.01 11.5 0.01 11.5h1.7v-0.82c0.33 0.37 0.81 0.83 1.7 0.82 0.53 0 0.94-0.42 1.21-0.74 0.28-0.32 0.49-0.7 0.49-1.31v-4.93c0-0.71-0.23-1.19-0.53-1.55q-0.45-0.54-1.28-0.55-0.42 0.01-0.83 0.21c-0.28 0.13-0.57 0.36-0.77 0.66v-3.29zm-6.81 9.86c0 0.51 0.23 0.76 0.43 1.01 0.22 0.27 0.69 0.63 1.1 0.63 0.33 0 0.69 0.01 1.04-0.18 0.35-0.17 0.51-0.28 0.83-0.64v0.82h1.7v-9.04h-1.7v6.58c-0.15 0.19-0.16 0.81-0.85 0.82-0.62 0.01-0.85-0.63-0.85-0.82v-6.58h-1.7zm13.54-6.83c-0.49 0.49-0.76 1.05-0.76 1.79v3.87q0.01 1.25 0.69 1.97 0.67 0.71 1.89 0.71c0.88 0 1.56-0.21 1.99-0.67 0.46-0.44 0.53-1.1 0.53-2v-0.49h-1.7v0.41c0 0.49-0.05 0.88-0.17 1.01q-0.16 0.22-0.68 0.22-0.49 0.01-0.67-0.27-0.19-0.24-0.19-0.92v-1.27h3.41v-2.56c0-0.82-0.14-1.33-0.58-1.77-0.43-0.43-1-0.6-1.81-0.6-0.81 0-1.55 0.19-1.95 0.57zm-3.33 1.9v4.13c0 0.45-0.38 0.8-0.85 0.8-0.47 0-0.84-0.17-0.85-0.41v-4.93c0.01-0.41 0.38-0.82 0.85-0.82 0.47 0 0.85 0.41 0.85 1.23zm5.96 0v0.82h-1.7v-0.82c0.01-0.44 0.38-0.82 0.85-0.82 0.47 0 0.85 0.31 0.85 0.82z"/>
			<path class="s1" d="m260.73 50.38c12.64 0 22.88-10.24 22.88-22.88 0-12.64-10.24-22.88-22.88-22.88-12.64 0-22.88 10.24-22.88 22.88 0 12.64 10.24 22.88 22.88 22.88z"/>
		</g>
	</g>
	<g>
		<path class="s0" d="m-723.91 11.26h4.81v23.05h14.51v4.34h-19.32z"/>
		<path class="s0" d="m-687.32 38.65v-2.54q-1.07 1.26-2.72 2.11-1.65 0.86-4.02 0.86-1.5 0-2.84-0.41-1.34-0.41-2.35-1.21-1-0.8-1.62-2-0.61-1.19-0.61-2.76v-0.08q0-1.68 0.63-2.93 0.64-1.25 1.75-2.07 1.12-0.82 2.68-1.23 1.56-0.41 3.37-0.41 1.89 0 3.21 0.23 1.32 0.24 2.54 0.63v-0.51q0-2.15-1.32-3.29-1.32-1.14-3.8-1.13-1.77 0-3.15 0.35-1.38 0.35-2.8 0.94l-1.3-3.8q1.74-0.78 3.55-1.25 1.81-0.47 4.38-0.47 4.65 0 6.9 2.29 2.25 2.29 2.25 6.44v12.25c0 0-4.73 0-4.73-0.01zm0.12-8.76q-0.91-0.35-2.15-0.59-1.24-0.24-2.62-0.23-2.25 0-3.51 0.86-1.26 0.86-1.26 2.47v0.08q0 1.49 1.16 2.27 1.16 0.78 2.86 0.78 1.19 0 2.19-0.31 1.01-0.31 1.75-0.88 0.75-0.57 1.16-1.37 0.42-0.8 0.41-1.78c0 0 0-1.3 0.01-1.3z"/>
		<path class="s0" d="m-642.75 36.28q-1.17 0.88-2.5 1.53-1.34 0.65-2.94 0.98-1.59 0.33-3.53 0.33-3.03 0-5.6-1.1-2.57-1.1-4.43-2.99-1.88-1.89-2.94-4.48-1.06-2.58-1.06-5.56 0-2.94 1.04-5.52 1.05-2.58 2.94-4.52 1.89-1.94 4.49-3.05 2.6-1.11 5.76-1.12 1.89 0 3.45 0.31 1.56 0.31 2.86 0.88 1.31 0.57 2.4 1.35 1.11 0.79 2.09 1.72l-3.11 3.56q-1.65-1.53-3.51-2.46-1.86-0.94-4.22-0.94-1.97 0-3.65 0.76-1.67 0.77-2.9 2.07-1.22 1.31-1.89 3.07-0.67 1.76-0.67 3.8 0 2.04 0.67 3.82 0.68 1.78 1.89 3.11 1.22 1.33 2.9 2.09 1.68 0.76 3.65 0.76 2.52 0 4.34-0.96 1.81-0.96 3.59-2.6l3.11 3.13q-1.07 1.16-2.23 2.03z"/>
		<path class="s0" d="m-623.26 38.65v-2.54q-1.07 1.26-2.72 2.11-1.65 0.86-4.02 0.86-1.5 0-2.84-0.41-1.34-0.41-2.35-1.21-1-0.8-1.62-2-0.61-1.19-0.61-2.76v-0.08q0-1.68 0.63-2.93 0.64-1.25 1.75-2.07 1.12-0.82 2.68-1.23 1.56-0.41 3.37-0.41 1.89 0 3.21 0.23 1.32 0.24 2.54 0.63v-0.51q0-2.15-1.32-3.29-1.32-1.14-3.8-1.13-1.77 0-3.15 0.35-1.38 0.35-2.8 0.94l-1.3-3.8q1.74-0.78 3.55-1.25 1.81-0.47 4.38-0.47 4.65 0 6.9 2.29 2.25 2.29 2.25 6.44v12.25c0 0-4.73 0-4.73-0.01zm0.12-8.76q-0.91-0.35-2.15-0.59-1.24-0.24-2.62-0.23-2.25 0-3.51 0.86-1.26 0.86-1.26 2.47v0.08q0 1.49 1.16 2.27 1.16 0.78 2.86 0.78 1.18 0 2.19-0.31 1.01-0.31 1.75-0.88 0.75-0.57 1.16-1.37 0.42-0.8 0.41-1.78c0 0 0-1.3 0.01-1.3z"/>
		<path class="s0" d="m-592.13 32.9q-0.81 2-2.17 3.38-1.37 1.39-3.11 2.09-1.75 0.7-3.61 0.7-2.57 0-4.26-1.1-1.69-1.1-2.8-2.54l0.04 9.47h-4.81v-26.91h4.81v3.44q1.14-1.65 2.83-2.76 1.69-1.11 4.21-1.12 1.85 0 3.58 0.7 1.73 0.71 3.09 2.09 1.35 1.39 2.18 3.38 0.83 2 0.83 4.58 0 2.61-0.81 4.6zm-4.48-7.34q-0.48-1.23-1.28-2.09-0.81-0.86-1.89-1.33-1.08-0.47-2.31-0.47-1.22 0-2.33 0.47-1.11 0.47-1.93 1.35-0.83 0.89-1.32 2.09-0.49 1.21-0.49 2.74 0 1.53 0.49 2.74 0.5 1.22 1.32 2.09 0.83 0.88 1.93 1.35 1.1 0.47 2.33 0.47 1.21 0 2.31-0.47 1.08-0.47 1.89-1.33 0.81-0.86 1.28-2.09 0.48-1.23 0.47-2.76 0.01-1.53-0.47-2.76z"/>
		<path class="s0" d="m-586.36 14.82v-4.5h5.16v4.5zm0.2 23.83v-20.66h4.81v20.66z"/>
		<path class="s0" d="m-569.37 32.19q0 1.38 0.67 1.98 0.67 0.61 1.89 0.61 1.54 0 2.96-0.7v3.87q-0.91 0.51-1.93 0.78-1.02 0.27-2.37 0.27-1.3 0-2.41-0.31-1.11-0.31-1.93-1.02-0.81-0.7-1.25-1.86-0.44-1.15-0.44-2.88v-10.9h-2.64v-4.03h2.64v-5.67h4.81v5.67h5.6v4.03h-5.6z"/>
		<path class="s0" d="m-546.26 38.65v-2.54q-1.07 1.26-2.72 2.11-1.65 0.86-4.02 0.86-1.5 0-2.84-0.41-1.34-0.41-2.35-1.21-1-0.8-1.62-2-0.61-1.19-0.61-2.76v-0.08q0-1.68 0.63-2.93 0.64-1.25 1.75-2.07 1.12-0.82 2.68-1.23 1.56-0.41 3.37-0.41 1.89 0 3.21 0.23 1.32 0.24 2.54 0.63v-0.51q0-2.15-1.32-3.29-1.32-1.14-3.8-1.13-1.77 0-3.15 0.35-1.38 0.35-2.8 0.94l-1.3-3.8q1.74-0.78 3.55-1.25 1.81-0.47 4.38-0.47 4.65 0 6.9 2.29 2.25 2.29 2.25 6.44v12.25c0 0-4.73 0-4.73-0.01zm0.11-8.76q-0.91-0.35-2.15-0.59-1.24-0.24-2.62-0.23-2.25 0-3.51 0.86-1.26 0.86-1.26 2.47v0.08q0 1.49 1.16 2.27 1.16 0.78 2.86 0.78 1.19 0 2.19-0.31 1.01-0.31 1.75-0.88 0.75-0.57 1.16-1.37 0.42-0.8 0.41-1.78c0 0 0-1.3 0.01-1.3z"/>
		<path class="s0" d="m-535.58 38.65v-28.56h4.81v28.56z"/>
		<path class="s0" d="m-497.42 44.69v-9.7q-1.14 1.6-2.85 2.74-1.71 1.13-4.23 1.13-1.85 0-3.58-0.7-1.73-0.71-3.07-2.09-1.33-1.39-2.16-3.38-0.83-2-0.83-4.58 0-2.58 0.81-4.58 0.81-2 2.14-3.38 1.33-1.39 3.09-2.09 1.75-0.7 3.6-0.7 2.55 0 4.25 1.1 1.69 1.1 2.83 2.54v-3.21h4.81v26.92h-4.81zm-0.42-19.33q-0.49-1.22-1.32-2.09-0.82-0.89-1.93-1.35-1.1-0.47-2.28-0.47-1.22 0-2.3 0.45-1.08 0.45-1.91 1.31-0.82 0.86-1.3 2.09-0.47 1.23-0.47 2.8 0 1.53 0.47 2.76 0.47 1.23 1.3 2.09 0.82 0.86 1.91 1.33 1.08 0.47 2.3 0.47 1.19 0 2.28-0.47 1.09-0.47 1.93-1.35 0.83-0.88 1.32-2.09 0.49-1.21 0.49-2.74 0-1.53-0.49-2.74z"/>
		<path class="s0" d="m-473.02 17.77h4.81v20.66h-4.81v-3.24q-1.02 1.5-2.56 2.59-1.53 1.09-3.93 1.09-3.54 0-5.46-2.15-1.92-2.15-1.93-5.79v-13.16h4.81v11.71q0 2.42 1.15 3.73 1.16 1.31 3.26 1.31 2.07 0 3.36-1.35 1.29-1.34 1.29-3.77c0 0 0-11.63 0.01-11.63z"/>
		<path class="s0" d="m-456.54 33.68q1.62 1.35 3.94 1.35 1.77 0 3.08-0.63 1.3-0.63 2.56-1.84l2.8 2.47q-1.5 1.76-3.57 2.82-2.07 1.06-4.95 1.06-2.25 0-4.2-0.78-1.95-0.78-3.39-2.19-1.43-1.41-2.27-3.38-0.83-1.97-0.83-4.4 0-2.23 0.75-4.19 0.75-1.96 2.11-3.42 1.37-1.47 3.21-2.33 1.85-0.86 4.1-0.86 2.49 0 4.36 0.9 1.88 0.9 3.11 2.43 1.24 1.52 1.87 3.56 0.63 2.04 0.63 4.26 0 0.32-0.02 0.63-0.01 0.31-0.06 0.67h-15.3q0.46 2.51 2.07 3.87zm8.59-7.03q-0.12-1.14-0.51-2.13-0.39-1-1.06-1.72-0.67-0.72-1.6-1.15-0.93-0.43-2.11-0.43-2.21 0-3.65 1.51-1.44 1.51-1.75 3.93h10.68z"/>
		<path class="s0" d="m-410.93 44.69v-9.7q-1.14 1.6-2.85 2.74-1.71 1.13-4.23 1.13-1.85 0-3.58-0.7-1.73-0.71-3.07-2.09-1.33-1.39-2.16-3.38-0.83-2-0.83-4.58 0-2.58 0.81-4.58 0.81-2 2.14-3.38 1.33-1.39 3.09-2.09 1.75-0.7 3.6-0.7 2.55 0 4.25 1.1 1.69 1.1 2.83 2.54v-3.21h4.81v26.92h-4.81zm-0.41-19.33q-0.49-1.22-1.32-2.09-0.82-0.89-1.93-1.35-1.1-0.47-2.28-0.47-1.22 0-2.3 0.45-1.08 0.45-1.91 1.31-0.82 0.86-1.3 2.09-0.47 1.23-0.47 2.8 0 1.53 0.47 2.76 0.47 1.23 1.3 2.09 0.82 0.86 1.91 1.33 1.08 0.47 2.3 0.47 1.19 0 2.28-0.47 1.09-0.47 1.93-1.35 0.83-0.88 1.32-2.09 0.49-1.21 0.49-2.74 0-1.53-0.49-2.74z"/>
		<path class="s0" d="m-386.52 17.77h4.81v20.66h-4.81v-3.24q-1.02 1.5-2.56 2.59-1.53 1.09-3.93 1.09-3.54 0-5.46-2.15-1.92-2.15-1.93-5.79v-13.16h4.81v11.71q0 2.42 1.15 3.73 1.16 1.31 3.26 1.31 2.07 0 3.36-1.35 1.29-1.34 1.29-3.77c0 0 0-11.63 0.01-11.63z"/>
		<path class="s0" d="m-370.05 33.68q1.62 1.35 3.94 1.35 1.77 0 3.08-0.63 1.3-0.63 2.56-1.84l2.8 2.47q-1.5 1.76-3.57 2.82-2.07 1.06-4.95 1.06-2.25 0-4.2-0.78-1.95-0.78-3.39-2.19-1.43-1.41-2.27-3.38-0.83-1.97-0.83-4.4 0-2.23 0.75-4.19 0.75-1.96 2.11-3.42 1.37-1.47 3.21-2.33 1.85-0.86 4.1-0.86 2.49 0 4.36 0.9 1.88 0.9 3.11 2.43 1.24 1.52 1.87 3.56 0.63 2.04 0.63 4.26 0 0.32-0.02 0.63-0.01 0.31-0.06 0.67h-15.3q0.46 2.51 2.07 3.87zm8.6-7.03q-0.12-1.14-0.51-2.13-0.39-1-1.06-1.72-0.67-0.72-1.6-1.15-0.93-0.43-2.11-0.43-2.21 0-3.65 1.51-1.44 1.51-1.75 3.93h10.68z"/>
		<path class="s0" d="m-347.1 38.43h-4.81v-20.66h4.81v4.66q0.99-2.35 2.8-3.76 1.81-1.41 4.57-1.29v5.01h-0.28q-1.58 0-2.88 0.51-1.3 0.51-2.25 1.53-0.95 1.02-1.46 2.56-0.51 1.54-0.51 3.58c0 0 0 7.86 0.01 7.86z"/>
		<path class="s0" d="m-329.95 33.68q1.62 1.35 3.94 1.35 1.77 0 3.08-0.63 1.3-0.63 2.56-1.84l2.8 2.47q-1.5 1.76-3.57 2.82-2.07 1.06-4.95 1.06-2.25 0-4.2-0.78-1.95-0.78-3.39-2.19-1.44-1.41-2.27-3.38-0.83-1.97-0.83-4.4 0-2.23 0.75-4.19 0.75-1.96 2.11-3.42 1.37-1.47 3.21-2.33 1.85-0.86 4.1-0.86 2.49 0 4.36 0.9 1.88 0.9 3.11 2.43 1.24 1.52 1.87 3.56 0.63 2.04 0.63 4.26 0 0.32-0.02 0.63-0.01 0.31-0.06 0.67h-15.28q0.43 2.51 2.05 3.87zm8.59-7.03q-0.12-1.14-0.51-2.13-0.39-1-1.06-1.72-0.67-0.72-1.6-1.15-0.93-0.43-2.11-0.43-2.21 0-3.65 1.51-1.44 1.51-1.75 3.93h10.68z"/>
		<path class="s0" d="m-291.5 18.35q1.71-1.01 4.08-1.01 3.44 0 5.36 2.05 1.93 2.05 1.93 5.85v13.19h-4.81v-11.71q0-2.46-1.1-3.75-1.1-1.29-3.1-1.29-1.96 0-3.2 1.31-1.24 1.3-1.24 3.81v11.63h-4.81v-11.75q0-2.42-1.1-3.71-1.1-1.29-3.1-1.29-2 0-3.22 1.37-1.22 1.36-1.22 3.79v11.59h-4.81v-20.66h4.81v3.16q0.51-0.71 1.1-1.34 0.59-0.63 1.36-1.15 0.77-0.51 1.73-0.81 0.96-0.3 2.15-0.3 2.24 0 3.8 1.01 1.56 1.01 2.38 2.66 1.3-1.64 3.01-2.65z"/>
		<path class="s0" d="m-254.16 32.29q-0.85 1.96-2.33 3.42-1.48 1.47-3.53 2.33-2.05 0.86-4.46 0.86-2.37 0-4.4-0.84-2.02-0.84-3.51-2.31-1.48-1.47-2.31-3.4-0.83-1.94-0.83-4.17 0-2.23 0.85-4.21 0.84-1.98 2.33-3.44 1.48-1.47 3.51-2.33 2.03-0.86 4.43-0.86 2.4 0 4.44 0.84 2.03 0.84 3.51 2.31 1.48 1.47 2.31 3.42 0.83 1.95 0.83 4.19 0.01 2.24-0.84 4.19zm-4.43-6.69q-0.47-1.22-1.31-2.13-0.84-0.92-2-1.45-1.16-0.53-2.57-0.53-1.41 0-2.57 0.53-1.16 0.53-1.98 1.43-0.83 0.9-1.25 2.09-0.43 1.2-0.43 2.56 0 1.37 0.47 2.6 0.47 1.23 1.31 2.13 0.84 0.9 2 1.43 1.15 0.53 2.53 0.53 1.45 0 2.61-0.53 1.15-0.53 1.98-1.43 0.83-0.9 1.25-2.09 0.43-1.19 0.43-2.56 0-1.37-0.47-2.58z"/>
		<path class="s0" d="m-234.19 35.19q-0.59 1.22-1.64 2.01-1.05 0.81-2.46 1.21-1.42 0.41-3.04 0.41-2.25 0-4.55-0.78-2.31-0.78-4.28-2.31l2.13-3.21q1.69 1.26 3.45 1.9 1.75 0.65 3.37 0.65 1.54 0 2.39-0.61 0.85-0.61 0.85-1.62v-0.08q0-0.59-0.37-1.02-0.37-0.43-1.03-0.76-0.64-0.33-1.5-0.59-0.85-0.26-1.75-0.53-1.14-0.35-2.31-0.78-1.16-0.44-2.09-1.11-0.92-0.69-1.52-1.68-0.59-1-0.59-2.48v-0.08q0-1.45 0.57-2.62 0.57-1.17 1.58-2 1.01-0.82 2.37-1.25 1.36-0.43 2.9-0.43 1.97 0 3.98 0.63 2.01 0.63 3.67 1.72l-1.89 3.36q-1.5-0.9-3.04-1.43-1.54-0.53-2.84-0.53-1.38 0-2.15 0.59-0.77 0.59-0.77 1.49v0.08q0 0.55 0.39 0.96 0.39 0.41 1.04 0.74 0.65 0.33 1.5 0.63 0.85 0.3 1.75 0.57 1.14 0.35 2.29 0.82 1.14 0.47 2.07 1.15 0.93 0.69 1.52 1.66 0.59 0.98 0.59 2.39v0.08q0 1.63-0.59 2.85z"/>
	</g>
</svg>