<?xml version="1.0" encoding="utf-8"?>
    <!-- Generator: Adobe Illustrator 27.1.0, SVG Export Plug-In . SVG Version: 6.00 Build 0)  -->
    <svg
      version="1.1"
      id="Layer_1"
      xmlns="http://www.w3.org/2000/svg"
      xmlns:xlink="http://www.w3.org/1999/xlink"
      x="0px"
      y="0px"
      viewBox="0 0 1295 145"
      style="enable-background: new 0 0 1295 145"
      xml:space="preserve"
    >
      <style type="text/css">
        .st0 {
          fill: #003f7e;
        }
        .st1 {
          fill: none;
          stroke: #003f7e;
          stroke-width: 1.2712;
        }
        .st2 {
          fill: #ffffff;
          filter: url(#Adobe_OpacityMaskFilter);
        }
        .st3 {
          mask: url(#mask0_273_919_00000181807996155929117790000017052549230657970569_);
        }
        .st4 {
          fill-rule: evenodd;
          clip-rule: evenodd;
          fill: #003f7e;
        }
      </style>

      <!-- Facebook -->
      <a
        href="https://www.facebook.com/msrsantarosa/?locale=es_LA"
        target="_blank"
      >
        <path
          pointer-events="bounding-box"
          class="st0"
          d="M865.72,48.67c-13.15,0-23.83,10.7-23.83,23.87c0,11.96,8.81,21.85,20.27,23.58l1.24,0.19V77.49h-5.63v-3.82
        h5.63V68.6c0-3.12,0.75-5.18,1.99-6.47s3.07-1.94,5.62-1.94c2.04,0,2.83,0.12,3.58,0.22v3.13h-2.65c-1.5,0-2.74,0.84-3.38,1.96
        c-0.64,1.12-0.84,2.46-0.84,3.82v4.36h6.63l-0.59,3.82h-6.04v18.84l1.23-0.17c11.63-1.58,20.61-11.55,20.61-23.63
        C889.55,59.37,878.87,48.67,865.72,48.67z
        M865.72,50.84c11.98,0,21.67,9.7,21.67,21.7c0,10.56-7.54,19.24-17.5,21.2V79.66h5.73
        l1.26-8.16h-6.99v-2.19c0-1.13,0.21-2.13,0.55-2.74c0.35-0.61,0.68-0.87,1.5-0.87h4.82v-7.26l-0.94-0.13
        c-0.65-0.09-2.13-0.29-4.81-0.29c-2.93,0-5.44,0.8-7.18,2.61s-2.59,4.5-2.59,7.98v2.9h-5.63v8.16h5.63v14
        c-9.8-2.08-17.18-10.68-17.18-21.13C844.05,60.54,853.74,50.84,865.72,50.84z"
        />
      </a>
      <!-- IG -->
      <a
        href="https://www.instagram.com/santarosamunicipio/?hl=es"
        target="_blank"
      >
        <g>
          <path
            class="st1"
            pointer-events="bounding-box"
            d="M941.05,95.38c12.64,0,22.88-10.24,22.88-22.88s-10.24-22.88-22.88-22.88s-22.88,10.24-22.88,22.88
		S928.42,95.38,941.05,95.38z"
          />
          <defs>
            <filter
              id="Adobe_OpacityMaskFilter"
              filterUnits="userSpaceOnUse"
              x="928.69"
              y="59.22"
              width="24.66"
              height="24.66"
            >
              <feColorMatrix
                type="matrix"
                values="1 0 0 0 0  0 1 0 0 0  0 0 1 0 0  0 0 0 1 0"
              />
            </filter>
          </defs>

          <mask
            maskUnits="userSpaceOnUse"
            x="928.69"
            y="59.22"
            width="24.66"
            height="24.66"
            id="mask0_273_919_00000181807996155929117790000017052549230657970569_"
          >
            <path class="st2" d="M953.35,59.22h-24.66v24.66h24.66V59.22z" />
          </mask>
          <g class="st3">
            <path
              class="st0"
              d="M941.02,61.44c3.29,0,3.68,0.01,4.98,0.07c1.34,0.06,2.73,0.37,3.71,1.35c0.99,0.99,1.29,2.36,1.35,3.71
			c0.06,1.3,0.07,1.69,0.07,4.98s-0.01,3.68-0.07,4.98c-0.06,1.34-0.37,2.73-1.35,3.71c-0.99,0.99-2.36,1.29-3.71,1.35
			c-1.3,0.06-1.69,0.07-4.98,0.07c-3.29,0-3.68-0.01-4.98-0.07c-1.33-0.06-2.74-0.38-3.71-1.35c-0.98-0.98-1.29-2.37-1.35-3.71
			c-0.06-1.3-0.07-1.69-0.07-4.98s0.01-3.68,0.07-4.98c0.06-1.33,0.38-2.74,1.35-3.71c0.99-0.99,2.36-1.29,3.71-1.35
			C937.34,61.45,937.73,61.44,941.02,61.44z M941.02,59.22c-3.35,0-3.77,0.01-5.08,0.07c-1.91,0.09-3.8,0.62-5.18,2
			c-1.38,1.38-1.91,3.27-2,5.18c-0.06,1.32-0.07,1.74-0.07,5.08c0,3.35,0.01,3.77,0.07,5.08c0.09,1.9,0.62,3.8,2,5.18
			c1.38,1.38,3.27,1.91,5.18,2c1.32,0.06,1.74,0.07,5.08,0.07c3.35,0,3.77-0.01,5.08-0.07c1.91-0.09,3.8-0.62,5.18-2
			c1.38-1.38,1.91-3.27,2-5.18c0.06-1.32,0.07-1.74,0.07-5.08c0-3.35-0.01-3.77-0.07-5.08c-0.09-1.91-0.62-3.8-2-5.18
			c-1.38-1.38-3.28-1.91-5.18-2C944.79,59.23,944.37,59.22,941.02,59.22z"
            />
            <path
              class="st0"
              d="M941.02,65.21c-3.5,0-6.33,2.83-6.33,6.33c0,3.5,2.83,6.33,6.33,6.33c3.5,0,6.33-2.83,6.33-6.33
			C947.35,68.05,944.51,65.21,941.02,65.21z M941.02,75.66c-2.27,0-4.11-1.84-4.11-4.11c0-2.27,1.84-4.11,4.11-4.11
			c2.27,0,4.11,1.84,4.11,4.11C945.13,73.82,943.29,75.66,941.02,75.66z"
            />
            <path
              class="st0"
              d="M947.6,66.44c0.82,0,1.48-0.66,1.48-1.48c0-0.82-0.66-1.48-1.48-1.48c-0.82,0-1.48,0.66-1.48,1.48
			C946.12,65.78,946.78,66.44,947.6,66.44z"
            />
          </g>
        </g>
      </a>

      <!-- Twitter -->
      <a href="https://x.com/msrlapampa" target="_blank">
        <g>
          <path
            pointer-events="bounding-box"
            class="st0"
            d="M1025.71,57.98h4.76l-10.4,11.88l12.23,16.17h-9.58l-7.51-9.8l-8.58,9.8h-4.77L1013,73.32l-11.73-15.34h9.82
		l6.78,8.96L1025.71,57.98z M1024.04,83.19h2.64l-17.02-22.51h-2.83L1024.04,83.19z"
          />
          <path
            class="st1"
            d="M1016.39,95.38c12.64,0,22.88-10.24,22.88-22.88s-10.24-22.88-22.88-22.88s-22.88,10.24-22.88,22.88
		S1003.75,95.38,1016.39,95.38z"
          />
        </g>
      </a>

      <!-- YT -->
      <a href="https://www.youtube.com/@SantaRosaMunicipio" target="_blank">
        <g>
          <path
            pointer-events="bounding-box"
            class="st4"
            d="M1081.81,54.28l2.55,7.4v4.93h1.7v-4.93l2.55-7.4h-1.7l-1.7,4.93l-1.7-4.93H1081.81z M1091.18,57.57
		c-0.91,0-1.35,0.14-1.91,0.58c-0.53,0.43-0.68,0.77-0.65,1.89v4.11c0,0.82,0.14,1.36,0.65,1.84c0.53,0.48,1.03,0.63,1.9,0.63
		c0.91,0,1.4-0.15,1.92-0.63c0.53-0.46,0.64-1.02,0.64-1.84v-4.11c0-0.73-0.13-1.41-0.65-1.87
		C1092.55,57.69,1092,57.57,1091.18,57.57z M1095.43,57.57v7.4c0,0.8,0.83,1.64,1.7,1.64s1.33-0.42,1.7-0.82v0.82h1.7v-9.04h-1.7
		v6.58c-0.01,0.56-0.7,0.82-0.85,0.82c-0.18,0-0.85-0.04-0.85-0.82v-6.58H1095.43z M1091.18,59.22c0.26,0,0.85,0,0.85,0.82v4.11
		c0,0.8-0.58,0.82-0.85,0.82c-0.26,0-0.85-0.01-0.85-0.82v-4.11C1090.32,59.37,1090.69,59.22,1091.18,59.22z M1079.26,68.26
		c-3.06,0-5.11,1.96-5.11,4.93V81c0,2.97,2.05,5.34,5.11,5.34h25.54c3.06,0,5.11-1.96,5.11-4.93v-8.22c0-2.97-2.05-4.93-5.11-4.93
		H1079.26z M1080.96,71.55h5.11v1.64h-1.7v9.86h-1.7v-9.86h-1.7V71.55z M1092.88,71.55h1.7v3.29c0.2-0.3,0.49-0.53,0.77-0.66
		c0.27-0.13,0.55-0.21,0.83-0.21c0.55,0,0.98,0.19,1.28,0.55c0.3,0.36,0.53,0.84,0.53,1.55V81c0,0.61-0.21,0.99-0.49,1.31
		c-0.27,0.32-0.68,0.74-1.21,0.74c-0.89,0.01-1.37-0.45-1.7-0.82v0.82h-1.7V71.55z M1086.07,74.01h1.7v6.58
		c0,0.19,0.23,0.83,0.85,0.82c0.69-0.01,0.7-0.63,0.85-0.82v-6.58h1.7v9.04h-1.7v-0.82c-0.32,0.36-0.48,0.47-0.83,0.64
		c-0.35,0.19-0.71,0.18-1.04,0.18c-0.41,0-0.88-0.36-1.1-0.63c-0.2-0.25-0.43-0.5-0.43-1.01V74.01z M1101.56,74.01
		c0.81,0,1.38,0.17,1.81,0.6c0.44,0.44,0.58,0.95,0.58,1.77v2.56h-3.41v1.27c0,0.46,0.06,0.75,0.19,0.92
		c0.12,0.19,0.35,0.27,0.67,0.27c0.35,0,0.57-0.07,0.68-0.22c0.12-0.13,0.17-0.52,0.17-1.01v-0.41h1.7v0.49c0,0.9-0.07,1.56-0.53,2
		c-0.43,0.46-1.11,0.67-1.99,0.67c-0.81,0-1.44-0.23-1.89-0.71c-0.45-0.48-0.69-1.13-0.69-1.97v-3.87c0-0.74,0.27-1.3,0.76-1.79
		C1100.01,74.2,1100.75,74.01,1101.56,74.01z M1095.43,75.25c-0.47,0-0.84,0.41-0.85,0.82V81c0.01,0.24,0.38,0.41,0.85,0.41
		c0.47,0,0.85-0.35,0.85-0.8v-4.13C1096.28,75.66,1095.9,75.25,1095.43,75.25z M1101.39,75.66c-0.47,0-0.84,0.38-0.85,0.82v0.82h1.7
		v-0.82C1102.24,75.97,1101.86,75.66,1101.39,75.66z"
          />
          <path
            class="st1"
            d="M1091.73,95.38c12.64,0,22.88-10.24,22.88-22.88s-10.24-22.88-22.88-22.88c-12.64,0-22.88,10.24-22.88,22.88
		S1079.09,95.38,1091.73,95.38z"
          />
        </g>
      </a>

      <g>
        <path
          class="st0"
          d="M107.09,56.26h4.81v23.05h14.51v4.34h-19.32V56.26z"
        />
        <path
          class="st0"
          d="M143.68,83.65v-2.54c-0.71,0.84-1.62,1.54-2.72,2.11c-1.1,0.57-2.44,0.86-4.02,0.86c-1,0-1.95-0.14-2.84-0.41
		c-0.89-0.27-1.68-0.68-2.35-1.21c-0.67-0.53-1.21-1.2-1.62-2c-0.41-0.8-0.61-1.71-0.61-2.76v-0.08c0-1.12,0.21-2.1,0.63-2.93
		c0.42-0.83,1.01-1.53,1.75-2.07c0.75-0.55,1.64-0.96,2.68-1.23c1.04-0.27,2.16-0.41,3.37-0.41c1.26,0,2.33,0.08,3.21,0.23
		c0.88,0.16,1.73,0.37,2.54,0.63v-0.51c0-1.43-0.44-2.53-1.32-3.29c-0.88-0.76-2.15-1.13-3.8-1.13c-1.18,0-2.23,0.12-3.15,0.35
		c-0.92,0.23-1.85,0.55-2.8,0.94l-1.3-3.8c1.16-0.52,2.34-0.94,3.55-1.25c1.21-0.31,2.67-0.47,4.38-0.47c3.1,0,5.4,0.76,6.9,2.29
		c1.5,1.53,2.25,3.67,2.25,6.44v12.25H143.68z M143.8,74.89c-0.61-0.23-1.32-0.43-2.15-0.59c-0.83-0.16-1.7-0.23-2.62-0.23
		c-1.5,0-2.67,0.29-3.51,0.86c-0.84,0.57-1.26,1.4-1.26,2.47v0.08c0,0.99,0.39,1.75,1.16,2.27c0.77,0.52,1.73,0.78,2.86,0.78
		c0.79,0,1.52-0.1,2.19-0.31c0.67-0.21,1.26-0.5,1.75-0.88c0.5-0.38,0.89-0.83,1.16-1.37c0.28-0.53,0.41-1.13,0.41-1.78V74.89z"
        />
        <path
          class="st0"
          d="M188.25,81.28c-0.78,0.59-1.61,1.1-2.5,1.53c-0.89,0.43-1.87,0.76-2.94,0.98c-1.06,0.22-2.24,0.33-3.53,0.33
		c-2.02,0-3.89-0.37-5.6-1.1c-1.71-0.73-3.19-1.73-4.43-2.99c-1.25-1.26-2.23-2.76-2.94-4.48c-0.71-1.72-1.06-3.57-1.06-5.56
		c0-1.96,0.35-3.8,1.04-5.52c0.7-1.72,1.68-3.23,2.94-4.52c1.26-1.29,2.76-2.31,4.49-3.05c1.73-0.74,3.65-1.12,5.76-1.12
		c1.26,0,2.41,0.1,3.45,0.31c1.04,0.21,1.99,0.5,2.86,0.88c0.87,0.38,1.67,0.83,2.4,1.35c0.74,0.52,1.43,1.1,2.09,1.72l-3.11,3.56
		c-1.1-1.02-2.27-1.84-3.51-2.46c-1.24-0.63-2.64-0.94-4.22-0.94c-1.31,0-2.53,0.25-3.65,0.76c-1.12,0.51-2.08,1.2-2.9,2.07
		c-0.81,0.87-1.45,1.9-1.89,3.07c-0.45,1.17-0.67,2.44-0.67,3.8c0,1.36,0.22,2.63,0.67,3.82c0.45,1.19,1.08,2.22,1.89,3.11
		c0.81,0.89,1.78,1.58,2.9,2.09c1.12,0.51,2.33,0.76,3.65,0.76c1.68,0,3.13-0.32,4.34-0.96c1.21-0.64,2.4-1.51,3.59-2.6l3.11,3.13
		C189.77,80.03,189.02,80.7,188.25,81.28z"
        />
        <path
          class="st0"
          d="M207.74,83.65v-2.54c-0.71,0.84-1.62,1.54-2.72,2.11c-1.1,0.57-2.44,0.86-4.02,0.86c-1,0-1.95-0.14-2.84-0.41
		c-0.89-0.27-1.68-0.68-2.35-1.21c-0.67-0.53-1.21-1.2-1.62-2c-0.41-0.8-0.61-1.71-0.61-2.76v-0.08c0-1.12,0.21-2.1,0.63-2.93
		c0.42-0.83,1.01-1.53,1.75-2.07c0.75-0.55,1.64-0.96,2.68-1.23c1.04-0.27,2.16-0.41,3.37-0.41c1.26,0,2.33,0.08,3.21,0.23
		c0.88,0.16,1.73,0.37,2.54,0.63v-0.51c0-1.43-0.44-2.53-1.32-3.29c-0.88-0.76-2.15-1.13-3.8-1.13c-1.18,0-2.23,0.12-3.15,0.35
		c-0.92,0.23-1.85,0.55-2.8,0.94l-1.3-3.8c1.16-0.52,2.34-0.94,3.55-1.25c1.21-0.31,2.67-0.47,4.38-0.47c3.1,0,5.4,0.76,6.9,2.29
		c1.5,1.53,2.25,3.67,2.25,6.44v12.25H207.74z M207.86,74.89c-0.61-0.23-1.32-0.43-2.15-0.59c-0.83-0.16-1.7-0.23-2.62-0.23
		c-1.5,0-2.67,0.29-3.51,0.86c-0.84,0.57-1.26,1.4-1.26,2.47v0.08c0,0.99,0.39,1.75,1.16,2.27c0.77,0.52,1.73,0.78,2.86,0.78
		c0.79,0,1.52-0.1,2.19-0.31c0.67-0.21,1.26-0.5,1.75-0.88c0.5-0.38,0.89-0.83,1.16-1.37c0.28-0.53,0.41-1.13,0.41-1.78V74.89z"
        />
        <path
          class="st0"
          d="M238.87,77.9c-0.54,1.33-1.26,2.46-2.17,3.38c-0.91,0.93-1.95,1.62-3.11,2.09c-1.17,0.47-2.37,0.7-3.61,0.7
		c-1.71,0-3.13-0.37-4.26-1.1c-1.13-0.73-2.06-1.58-2.8-2.54l0.04,9.47h-4.81V62.99h4.81v3.44c0.76-1.1,1.7-2.02,2.83-2.76
		c1.13-0.74,2.53-1.12,4.21-1.12c1.23,0,2.43,0.23,3.58,0.7s2.18,1.17,3.09,2.09c0.9,0.93,1.63,2.05,2.18,3.38
		c0.55,1.33,0.83,2.86,0.83,4.58C239.68,75.04,239.41,76.57,238.87,77.9z M234.39,70.56c-0.32-0.82-0.74-1.52-1.28-2.09
		c-0.54-0.57-1.17-1.02-1.89-1.33c-0.72-0.31-1.49-0.47-2.31-0.47c-0.81,0-1.59,0.16-2.33,0.47c-0.74,0.31-1.38,0.76-1.93,1.35
		c-0.55,0.59-0.99,1.29-1.32,2.09c-0.33,0.81-0.49,1.72-0.49,2.74c0,1.02,0.16,1.93,0.49,2.74c0.33,0.81,0.77,1.51,1.32,2.09
		c0.55,0.59,1.2,1.04,1.93,1.35c0.74,0.31,1.51,0.47,2.33,0.47c0.81,0,1.58-0.16,2.31-0.47c0.72-0.31,1.35-0.76,1.89-1.33
		c0.54-0.57,0.97-1.27,1.28-2.09c0.32-0.82,0.47-1.74,0.47-2.76C234.87,72.3,234.71,71.38,234.39,70.56z"
        />
        <path
          class="st0"
          d="M244.64,59.82v-4.5h5.16v4.5H244.64z M244.84,83.65V62.99h4.81v20.66H244.84z"
        />
        <path
          class="st0"
          d="M261.63,77.19c0,0.92,0.22,1.58,0.67,1.98c0.45,0.41,1.08,0.61,1.89,0.61c1.03,0,2.01-0.23,2.96-0.7v3.87
		c-0.61,0.34-1.25,0.6-1.93,0.78c-0.68,0.18-1.47,0.27-2.37,0.27c-0.87,0-1.67-0.1-2.41-0.31c-0.74-0.21-1.38-0.55-1.93-1.02
		c-0.54-0.47-0.96-1.09-1.25-1.86c-0.29-0.77-0.44-1.73-0.44-2.88v-10.9h-2.64v-4.03h2.64v-5.67h4.81v5.67h5.6v4.03h-5.6V77.19z"
        />
        <path
          class="st0"
          d="M284.74,83.65v-2.54c-0.71,0.84-1.62,1.54-2.72,2.11c-1.1,0.57-2.44,0.86-4.02,0.86c-1,0-1.95-0.14-2.84-0.41
		c-0.89-0.27-1.68-0.68-2.35-1.21c-0.67-0.53-1.21-1.2-1.62-2c-0.41-0.8-0.61-1.71-0.61-2.76v-0.08c0-1.12,0.21-2.1,0.63-2.93
		c0.42-0.83,1.01-1.53,1.75-2.07c0.75-0.55,1.64-0.96,2.68-1.23c1.04-0.27,2.16-0.41,3.37-0.41c1.26,0,2.33,0.08,3.21,0.23
		c0.88,0.16,1.73,0.37,2.54,0.63v-0.51c0-1.43-0.44-2.53-1.32-3.29c-0.88-0.76-2.15-1.13-3.8-1.13c-1.18,0-2.23,0.12-3.15,0.35
		c-0.92,0.23-1.85,0.55-2.8,0.94l-1.3-3.8c1.16-0.52,2.34-0.94,3.55-1.25c1.21-0.31,2.67-0.47,4.38-0.47c3.1,0,5.4,0.76,6.9,2.29
		c1.5,1.53,2.25,3.67,2.25,6.44v12.25H284.74z M284.85,74.89c-0.61-0.23-1.32-0.43-2.15-0.59c-0.83-0.16-1.7-0.23-2.62-0.23
		c-1.5,0-2.67,0.29-3.51,0.86c-0.84,0.57-1.26,1.4-1.26,2.47v0.08c0,0.99,0.39,1.75,1.16,2.27c0.77,0.52,1.73,0.78,2.86,0.78
		c0.79,0,1.52-0.1,2.19-0.31c0.67-0.21,1.26-0.5,1.75-0.88c0.5-0.38,0.89-0.83,1.16-1.37c0.28-0.53,0.41-1.13,0.41-1.78V74.89z"
        />
        <path class="st0" d="M295.42,83.65V55.09h4.81v28.56H295.42z" />
        <path
          class="st0"
          d="M333.58,89.69v-9.7c-0.76,1.07-1.71,1.98-2.85,2.74c-1.14,0.76-2.55,1.13-4.23,1.13
		c-1.23,0-2.43-0.23-3.58-0.7c-1.15-0.47-2.18-1.17-3.07-2.09c-0.89-0.93-1.61-2.05-2.16-3.38c-0.55-1.33-0.83-2.86-0.83-4.58
		c0-1.72,0.27-3.25,0.81-4.58c0.54-1.33,1.25-2.46,2.14-3.38c0.89-0.93,1.92-1.62,3.09-2.09c1.17-0.47,2.37-0.7,3.6-0.7
		c1.7,0,3.12,0.37,4.25,1.1c1.13,0.73,2.07,1.58,2.83,2.54v-3.21h4.81v26.92H333.58z M333.16,70.36c-0.33-0.81-0.77-1.51-1.32-2.09
		c-0.55-0.59-1.19-1.04-1.93-1.35c-0.73-0.31-1.49-0.47-2.28-0.47c-0.81,0-1.58,0.15-2.3,0.45c-0.72,0.3-1.36,0.74-1.91,1.31
		c-0.55,0.57-0.98,1.27-1.3,2.09c-0.31,0.82-0.47,1.76-0.47,2.8c0,1.02,0.16,1.94,0.47,2.76c0.31,0.82,0.75,1.52,1.3,2.09
		c0.55,0.57,1.18,1.02,1.91,1.33c0.72,0.31,1.49,0.47,2.3,0.47c0.79,0,1.55-0.16,2.28-0.47c0.73-0.31,1.37-0.76,1.93-1.35
		c0.55-0.59,0.99-1.28,1.32-2.09s0.49-1.72,0.49-2.74S333.49,71.17,333.16,70.36z"
        />
        <path
          class="st0"
          d="M357.98,62.77h4.81v20.66h-4.81v-3.24c-0.68,1-1.53,1.86-2.56,2.59c-1.02,0.72-2.33,1.09-3.93,1.09
		c-2.36,0-4.18-0.72-5.46-2.15c-1.28-1.43-1.93-3.37-1.93-5.79V62.77h4.81v11.71c0,1.61,0.38,2.86,1.15,3.73
		c0.77,0.87,1.86,1.31,3.26,1.31c1.38,0,2.5-0.45,3.36-1.35c0.86-0.9,1.29-2.15,1.29-3.77V62.77z"
        />
        <path
          class="st0"
          d="M374.46,78.68c1.08,0.9,2.39,1.35,3.94,1.35c1.18,0,2.21-0.21,3.08-0.63c0.87-0.42,1.72-1.03,2.56-1.84
		l2.8,2.47c-1,1.17-2.19,2.11-3.57,2.82c-1.38,0.7-3.03,1.06-4.95,1.06c-1.5,0-2.9-0.26-4.2-0.78c-1.3-0.52-2.43-1.25-3.39-2.19
		c-0.96-0.94-1.71-2.07-2.27-3.38c-0.55-1.32-0.83-2.78-0.83-4.4c0-1.49,0.25-2.88,0.75-4.19c0.5-1.3,1.2-2.45,2.11-3.42
		c0.91-0.98,1.98-1.75,3.21-2.33c1.23-0.57,2.6-0.86,4.1-0.86c1.66,0,3.11,0.3,4.36,0.9c1.25,0.6,2.29,1.41,3.11,2.43
		c0.83,1.02,1.45,2.2,1.87,3.56c0.42,1.36,0.63,2.78,0.63,4.26c0,0.21-0.01,0.42-0.02,0.63c-0.01,0.21-0.03,0.43-0.06,0.67h-15.3
		C372.7,76.48,373.38,77.78,374.46,78.68z M383.05,71.65c-0.08-0.76-0.25-1.47-0.51-2.13c-0.26-0.67-0.62-1.24-1.06-1.72
		c-0.45-0.48-0.98-0.87-1.6-1.15c-0.62-0.29-1.32-0.43-2.11-0.43c-1.47,0-2.69,0.5-3.65,1.51c-0.96,1-1.54,2.32-1.75,3.93H383.05z"
        />
        <path
          class="st0"
          d="M420.07,89.69v-9.7c-0.76,1.07-1.71,1.98-2.85,2.74c-1.14,0.76-2.55,1.13-4.23,1.13
		c-1.23,0-2.43-0.23-3.58-0.7c-1.15-0.47-2.18-1.17-3.07-2.09c-0.89-0.93-1.61-2.05-2.16-3.38c-0.55-1.33-0.83-2.86-0.83-4.58
		c0-1.72,0.27-3.25,0.81-4.58c0.54-1.33,1.25-2.46,2.14-3.38c0.89-0.93,1.92-1.62,3.09-2.09c1.17-0.47,2.37-0.7,3.6-0.7
		c1.7,0,3.12,0.37,4.25,1.1c1.13,0.73,2.07,1.58,2.83,2.54v-3.21h4.81v26.92H420.07z M419.66,70.36c-0.33-0.81-0.77-1.51-1.32-2.09
		c-0.55-0.59-1.19-1.04-1.93-1.35c-0.73-0.31-1.49-0.47-2.28-0.47c-0.81,0-1.58,0.15-2.3,0.45c-0.72,0.3-1.36,0.74-1.91,1.31
		c-0.55,0.57-0.98,1.27-1.3,2.09c-0.31,0.82-0.47,1.76-0.47,2.8c0,1.02,0.16,1.94,0.47,2.76c0.31,0.82,0.75,1.52,1.3,2.09
		c0.55,0.57,1.18,1.02,1.91,1.33c0.72,0.31,1.49,0.47,2.3,0.47c0.79,0,1.55-0.16,2.28-0.47c0.73-0.31,1.37-0.76,1.93-1.35
		c0.55-0.59,0.99-1.28,1.32-2.09s0.49-1.72,0.49-2.74S419.99,71.17,419.66,70.36z"
        />
        <path
          class="st0"
          d="M444.48,62.77h4.81v20.66h-4.81v-3.24c-0.68,1-1.53,1.86-2.56,2.59c-1.02,0.72-2.33,1.09-3.93,1.09
		c-2.36,0-4.18-0.72-5.46-2.15c-1.28-1.43-1.93-3.37-1.93-5.79V62.77h4.81v11.71c0,1.61,0.38,2.86,1.15,3.73
		c0.77,0.87,1.86,1.31,3.26,1.31c1.38,0,2.5-0.45,3.36-1.35c0.86-0.9,1.29-2.15,1.29-3.77V62.77z"
        />
        <path
          class="st0"
          d="M460.95,78.68c1.08,0.9,2.39,1.35,3.94,1.35c1.18,0,2.21-0.21,3.08-0.63c0.87-0.42,1.72-1.03,2.56-1.84
		l2.8,2.47c-1,1.17-2.19,2.11-3.57,2.82c-1.38,0.7-3.03,1.06-4.95,1.06c-1.5,0-2.9-0.26-4.2-0.78c-1.3-0.52-2.43-1.25-3.39-2.19
		c-0.96-0.94-1.71-2.07-2.27-3.38c-0.55-1.32-0.83-2.78-0.83-4.4c0-1.49,0.25-2.88,0.75-4.19c0.5-1.3,1.2-2.45,2.11-3.42
		c0.91-0.98,1.98-1.75,3.21-2.33c1.23-0.57,2.6-0.86,4.1-0.86c1.66,0,3.11,0.3,4.36,0.9c1.25,0.6,2.29,1.41,3.11,2.43
		c0.83,1.02,1.45,2.2,1.87,3.56c0.42,1.36,0.63,2.78,0.63,4.26c0,0.21-0.01,0.42-0.02,0.63c-0.01,0.21-0.03,0.43-0.06,0.67h-15.3
		C459.19,76.48,459.88,77.78,460.95,78.68z M469.55,71.65c-0.08-0.76-0.25-1.47-0.51-2.13c-0.26-0.67-0.62-1.24-1.06-1.72
		c-0.45-0.48-0.98-0.87-1.6-1.15c-0.62-0.29-1.32-0.43-2.11-0.43c-1.47,0-2.69,0.5-3.65,1.51c-0.96,1-1.54,2.32-1.75,3.93H469.55z"
        />
        <path
          class="st0"
          d="M483.9,83.43h-4.81V62.77h4.81v4.66c0.66-1.57,1.59-2.82,2.8-3.76c1.21-0.94,2.73-1.37,4.57-1.29v5.01h-0.28
		c-1.05,0-2.01,0.17-2.88,0.51c-0.87,0.34-1.62,0.85-2.25,1.53c-0.63,0.68-1.12,1.53-1.46,2.56c-0.34,1.03-0.51,2.22-0.51,3.58
		V83.43z"
        />
        <path
          class="st0"
          d="M501.05,78.68c1.08,0.9,2.39,1.35,3.94,1.35c1.18,0,2.21-0.21,3.08-0.63c0.87-0.42,1.72-1.03,2.56-1.84
		l2.8,2.47c-1,1.17-2.19,2.11-3.57,2.82c-1.38,0.7-3.03,1.06-4.95,1.06c-1.5,0-2.9-0.26-4.2-0.78c-1.3-0.52-2.43-1.25-3.39-2.19
		c-0.96-0.94-1.71-2.07-2.27-3.38c-0.55-1.32-0.83-2.78-0.83-4.4c0-1.49,0.25-2.88,0.75-4.19c0.5-1.3,1.2-2.45,2.11-3.42
		c0.91-0.98,1.98-1.75,3.21-2.33c1.23-0.57,2.6-0.86,4.1-0.86c1.66,0,3.11,0.3,4.36,0.9c1.25,0.6,2.29,1.41,3.11,2.43
		c0.83,1.02,1.45,2.2,1.87,3.56c0.42,1.36,0.63,2.78,0.63,4.26c0,0.21-0.01,0.42-0.02,0.63c-0.01,0.21-0.03,0.43-0.06,0.67H499
		C499.29,76.48,499.97,77.78,501.05,78.68z M509.64,71.65c-0.08-0.76-0.25-1.47-0.51-2.13c-0.26-0.67-0.62-1.24-1.06-1.72
		c-0.45-0.48-0.98-0.87-1.6-1.15c-0.62-0.29-1.32-0.43-2.11-0.43c-1.47,0-2.69,0.5-3.65,1.51c-0.96,1-1.54,2.32-1.75,3.93H509.64z"
        />
        <path
          class="st0"
          d="M539.5,63.35c1.14-0.67,2.5-1.01,4.08-1.01c2.29,0,4.08,0.68,5.36,2.05c1.29,1.37,1.93,3.32,1.93,5.85v13.19
		h-4.81V71.72c0-1.64-0.37-2.89-1.1-3.75c-0.73-0.86-1.77-1.29-3.1-1.29c-1.31,0-2.37,0.44-3.2,1.31c-0.82,0.87-1.24,2.14-1.24,3.81
		v11.63h-4.81V71.68c0-1.61-0.37-2.85-1.1-3.71c-0.73-0.86-1.77-1.29-3.1-1.29c-1.33,0-2.41,0.45-3.22,1.37
		c-0.81,0.91-1.22,2.17-1.22,3.79v11.59h-4.81V62.77h4.81v3.16c0.34-0.47,0.71-0.92,1.1-1.34c0.39-0.42,0.85-0.8,1.36-1.15
		c0.51-0.34,1.09-0.61,1.73-0.81c0.64-0.2,1.36-0.3,2.15-0.3c1.5,0,2.76,0.34,3.8,1.01s1.83,1.56,2.38,2.66
		C537.36,64.91,538.36,64.02,539.5,63.35z"
        />
        <path
          class="st0"
          d="M576.84,77.29c-0.57,1.3-1.34,2.45-2.33,3.42c-0.99,0.98-2.16,1.76-3.53,2.33c-1.37,0.57-2.85,0.86-4.46,0.86
		c-1.58,0-3.04-0.28-4.4-0.84c-1.35-0.56-2.52-1.33-3.51-2.31c-0.99-0.98-1.75-2.11-2.31-3.4c-0.55-1.29-0.83-2.68-0.83-4.17
		c0-1.49,0.28-2.89,0.85-4.21c0.56-1.32,1.34-2.47,2.33-3.44c0.99-0.98,2.15-1.75,3.51-2.33c1.35-0.57,2.83-0.86,4.43-0.86
		c1.6,0,3.08,0.28,4.44,0.84c1.35,0.56,2.52,1.33,3.51,2.31c0.99,0.98,1.75,2.12,2.31,3.42c0.55,1.3,0.83,2.7,0.83,4.19
		S577.41,75.99,576.84,77.29z M572.41,70.6c-0.31-0.81-0.75-1.52-1.31-2.13c-0.56-0.61-1.23-1.1-2-1.45
		c-0.77-0.35-1.63-0.53-2.57-0.53c-0.94,0-1.8,0.18-2.57,0.53s-1.43,0.83-1.98,1.43c-0.55,0.6-0.97,1.3-1.25,2.09
		c-0.29,0.8-0.43,1.65-0.43,2.56c0,0.91,0.16,1.78,0.47,2.6c0.31,0.82,0.75,1.53,1.31,2.13c0.56,0.6,1.23,1.08,2,1.43
		c0.77,0.35,1.61,0.53,2.53,0.53c0.97,0,1.83-0.18,2.61-0.53c0.77-0.35,1.43-0.83,1.98-1.43c0.55-0.6,0.97-1.3,1.25-2.09
		c0.29-0.79,0.43-1.65,0.43-2.56C572.88,72.27,572.72,71.41,572.41,70.6z"
        />
        <path
          class="st0"
          d="M596.81,80.19c-0.39,0.81-0.94,1.48-1.64,2.01c-0.7,0.54-1.52,0.94-2.46,1.21c-0.95,0.27-1.96,0.41-3.04,0.41
		c-1.5,0-3.02-0.26-4.55-0.78c-1.54-0.52-2.96-1.29-4.28-2.31l2.13-3.21c1.13,0.84,2.28,1.47,3.45,1.9
		c1.17,0.43,2.29,0.65,3.37,0.65c1.03,0,1.82-0.2,2.39-0.61c0.56-0.4,0.85-0.95,0.85-1.62v-0.08c0-0.39-0.12-0.73-0.37-1.02
		c-0.25-0.29-0.59-0.54-1.03-0.76c-0.43-0.22-0.93-0.42-1.5-0.59c-0.57-0.17-1.15-0.35-1.75-0.53c-0.76-0.23-1.53-0.5-2.31-0.78
		c-0.78-0.29-1.47-0.66-2.09-1.11c-0.62-0.46-1.12-1.02-1.52-1.68c-0.39-0.67-0.59-1.49-0.59-2.48v-0.08c0-0.96,0.19-1.84,0.57-2.62
		c0.38-0.78,0.91-1.45,1.58-2c0.67-0.55,1.46-0.96,2.37-1.25c0.91-0.29,1.87-0.43,2.9-0.43c1.31,0,2.64,0.21,3.98,0.63
		c1.34,0.42,2.56,0.99,3.67,1.72l-1.89,3.36c-1-0.6-2.01-1.08-3.04-1.43c-1.03-0.35-1.97-0.53-2.84-0.53c-0.92,0-1.64,0.2-2.15,0.59
		c-0.51,0.39-0.77,0.89-0.77,1.49v0.08c0,0.37,0.13,0.68,0.39,0.96c0.26,0.27,0.61,0.52,1.04,0.74c0.43,0.22,0.93,0.43,1.5,0.63
		c0.56,0.2,1.15,0.39,1.75,0.57c0.76,0.23,1.52,0.51,2.29,0.82c0.76,0.31,1.45,0.7,2.07,1.15c0.62,0.46,1.12,1.01,1.52,1.66
		c0.39,0.65,0.59,1.45,0.59,2.39v0.08C597.4,78.42,597.2,79.38,596.81,80.19z"
        />
      </g>
    </svg>