<svg width="97" height="97" viewBox="0 0 97 97" fill="none" xmlns="http://www.w3.org/2000/svg">
<path fill-rule="evenodd" clip-rule="evenodd" d="M33.3955 21.34L37.4141 32.98V40.74H40.0931V32.98L44.1117 21.34H41.4326L38.7536 29.1L36.0745 21.34H33.3955ZM48.1303 26.5133C46.7018 26.5133 46.0006 26.7305 45.1268 27.4227C44.2896 28.1047 44.0594 28.6301 44.1117 30.3933V36.86C44.1117 38.1482 44.3315 38.997 45.1373 39.7498C45.9745 40.5025 46.7646 40.74 48.1303 40.74C49.5587 40.74 50.3384 40.5025 51.1442 39.7498C51.9814 39.0273 52.1488 38.1482 52.1488 36.86V30.3933C52.1488 29.2515 51.9395 28.1704 51.1285 27.4479C50.2913 26.7053 49.4279 26.5133 48.1303 26.5133ZM54.8279 26.5133V38.1533C54.8279 39.4113 56.1412 40.74 57.5069 40.74C58.8726 40.74 59.5947 40.0781 60.186 39.4466V40.74H62.865V26.5133H60.186V36.86C60.1703 37.7441 59.0924 38.1533 58.8465 38.1533C58.5691 38.1533 57.5069 38.0977 57.5069 36.86V26.5133H54.8279ZM48.1303 29.1C48.5332 29.1 49.4698 29.0949 49.4698 30.3933V36.86C49.4698 38.1129 48.5646 38.1533 48.1303 38.1533C47.7274 38.1533 46.7907 38.1381 46.7907 36.86V30.3933C46.7907 29.3374 47.3715 29.1 48.1303 29.1ZM29.3769 43.3266C24.563 43.3266 21.3398 46.4084 21.3398 51.0866V63.3733C21.3398 68.0515 24.563 71.78 29.3769 71.78H69.5626C74.3766 71.78 77.5998 68.6982 77.5998 64.02V51.0866C77.5998 46.4084 74.3766 43.3266 69.5626 43.3266H29.3769ZM32.056 48.5H40.0931V51.0866H37.4141V66.6066H34.735V51.0866H32.056V48.5ZM50.8093 48.5H53.4884V53.6733C53.7971 53.2085 54.2575 52.8397 54.6971 52.6326C55.1261 52.4204 55.5604 52.2991 56 52.2991C56.8686 52.2991 57.5488 52.6023 58.0145 53.1681C58.4802 53.739 58.8465 54.4968 58.8465 55.6133V63.3733C58.8465 64.3332 58.5116 64.9293 58.072 65.4396C57.643 65.9499 56.9994 66.5965 56.1674 66.6066C54.7599 66.6218 54.0064 65.8943 53.4884 65.3133V66.6066H50.8093V48.5ZM40.0931 52.38H42.7722V62.7266C42.7722 63.0247 43.1332 64.0301 44.1117 64.02C45.2001 64.0099 45.2105 63.0298 45.4512 62.7266V52.38H48.1303V66.6066H45.4512V65.3133C44.9541 65.8791 44.6977 66.056 44.1379 66.3237C43.5832 66.6268 43.0181 66.6066 42.4948 66.6066C41.846 66.6066 41.1082 66.0408 40.7629 65.6164C40.4542 65.2274 40.0931 64.8283 40.0931 64.02V52.38ZM64.4714 52.38C65.7429 52.38 66.6377 52.6427 67.3127 53.3298C68.0034 54.0168 68.2231 54.8201 68.2231 56.1135V60.14H62.865V62.1406C62.865 62.863 62.9644 63.3228 63.158 63.5956C63.3412 63.8937 63.7127 64.025 64.2045 64.02C64.7487 64.0149 65.0941 63.9088 65.2772 63.6714C65.4656 63.4592 65.5441 62.858 65.5441 62.08V61.4333H68.2231V62.2012C68.2231 63.6107 68.108 64.6616 67.3859 65.3487C66.7057 66.0711 65.6435 66.4046 64.2516 66.4046C62.9801 66.4046 61.986 66.0408 61.2743 65.2931C60.5627 64.5454 60.1912 63.5198 60.1912 62.2012V56.1135C60.1912 54.9414 60.615 54.0724 61.3947 53.2994C62.0226 52.678 63.1999 52.38 64.4714 52.38ZM54.8279 54.32C54.0901 54.32 53.4988 54.9616 53.4884 55.6133V63.3733C53.4988 63.7472 54.0901 64.02 54.8279 64.02C55.5657 64.02 56.1674 63.4693 56.1674 62.7569V56.26C56.1674 54.9666 55.5657 54.32 54.8279 54.32ZM64.2045 54.9666C63.4668 54.9666 62.8755 55.5678 62.865 56.26V57.5533H65.5441V56.26C65.5441 55.4668 64.9423 54.9666 64.2045 54.9666Z" fill="#003F7E"/>
<path d="M49 86C68.8823 86 85 69.8823 85 50C85 30.1177 68.8823 14 49 14C29.1177 14 13 30.1177 13 50C13 69.8823 29.1177 86 49 86Z" stroke="#003F7E" stroke-width="2"/>
</svg>
