<svg width="97" height="97" viewBox="0 0 97 97" fill="none" xmlns="http://www.w3.org/2000/svg">
<path d="M49 86C68.8823 86 85 69.8823 85 50C85 30.1177 68.8823 14 49 14C29.1177 14 13 30.1177 13 50C13 69.8823 29.1177 86 49 86Z" stroke="#003F7E" stroke-width="2"/>
<mask id="mask0_273_919" style="mask-type:luminance" maskUnits="userSpaceOnUse" x="29" y="29" width="40" height="39">
<path d="M68.343 29.0999H29.543V67.8999H68.343V29.0999Z" fill="white"/>
</mask>
<g mask="url(#mask0_273_919)">
<path d="M48.943 32.5951C54.1228 32.5951 54.7371 32.6145 56.7823 32.7082C58.8969 32.8052 61.0744 33.287 62.6151 34.8277C64.1704 36.3829 64.6376 38.5396 64.7346 40.6606C64.8284 42.7058 64.8478 43.32 64.8478 48.4998C64.8478 53.6796 64.8284 54.2939 64.7346 56.3391C64.6393 58.4424 64.1461 60.641 62.6151 62.172C61.0599 63.7272 58.9049 64.1944 56.7823 64.2914C54.7371 64.3852 54.1228 64.4046 48.943 64.4046C43.7632 64.4046 43.1488 64.3852 41.1038 64.2914C39.0167 64.1961 36.7889 63.6917 35.2708 62.172C33.7237 60.6248 33.2484 58.4472 33.1514 56.3391C33.0576 54.2939 33.0382 53.6796 33.0382 48.4998C33.0382 43.32 33.0576 42.7058 33.1514 40.6606C33.2468 38.5654 33.7447 36.3538 35.2708 34.8277C36.8228 33.2757 38.9876 32.8052 41.1038 32.7082C43.1488 32.6145 43.7632 32.5951 48.943 32.5951ZM48.943 29.0999C43.6742 29.0999 43.013 29.1225 40.9437 29.2163C37.9448 29.3537 34.9669 30.1879 32.799 32.3558C30.6229 34.5318 29.7968 37.5033 29.6594 40.5006C29.5656 42.57 29.543 43.2312 29.543 48.4998C29.543 53.7685 29.5656 54.4297 29.6594 56.4992C29.7968 59.4948 30.6342 62.4807 32.799 64.6439C34.9734 66.8183 37.9497 67.646 40.9437 67.7834C43.013 67.8772 43.6742 67.8998 48.943 67.8998C54.2117 67.8998 54.8729 67.8772 56.9422 67.7834C59.9396 67.646 62.9207 66.8102 65.0871 64.6439C67.2646 62.4662 68.0892 59.4964 68.2266 56.4992C68.3204 54.4297 68.343 53.7685 68.343 48.4998C68.343 43.2312 68.3204 42.57 68.2266 40.5006C68.0892 37.5017 67.2534 34.5221 65.0871 32.3558C62.9158 30.1846 59.9314 29.3521 56.9422 29.2163C54.8729 29.1225 54.2117 29.0999 48.943 29.0999Z" fill="#003F7E"/>
<path d="M48.9423 38.5371C43.4409 38.5371 38.9805 42.9975 38.9805 48.4991C38.9805 54.0005 43.4409 58.4609 48.9423 58.4609C54.4439 58.4609 58.9043 54.0005 58.9043 48.4991C58.9043 42.9975 54.4439 38.5371 48.9423 38.5371ZM48.9423 54.9658C45.3712 54.9658 42.4758 52.0703 42.4758 48.4991C42.4758 44.9278 45.3712 42.0323 48.9423 42.0323C52.5136 42.0323 55.4091 44.9278 55.4091 48.4991C55.4091 52.0703 52.5136 54.9658 48.9423 54.9658Z" fill="#003F7E"/>
<path d="M59.2987 40.4717C60.5845 40.4717 61.6267 39.4294 61.6267 38.1437C61.6267 36.858 60.5845 35.8157 59.2987 35.8157C58.0131 35.8157 56.9707 36.858 56.9707 38.1437C56.9707 39.4294 58.0131 40.4717 59.2987 40.4717Z" fill="#003F7E"/>
</g>
</svg>
