<svg width="97" height="97" viewBox="0 0 97 97" fill="none" xmlns="http://www.w3.org/2000/svg">
<path d="M48.5 11C27.8095 11 11 27.8364 11 48.56C11 67.3727 24.8537 82.9417 42.897 85.6565L44.8545 85.9533V56.3561H35.9956V50.3473H44.8545V42.3678C44.8545 37.4541 46.0318 34.2179 47.9806 32.1875C49.9295 30.1571 52.8091 29.1331 56.8163 29.1331C60.0205 29.1331 61.2671 29.3276 62.4526 29.4732V34.3917H58.2812C55.9143 34.3917 53.9724 35.7143 52.9644 37.4761C51.9565 39.2378 51.6428 41.3414 51.6428 43.4849V50.344H62.0798L61.1509 56.3528H51.6428V86L53.577 85.7366C71.8767 83.2507 86 67.5566 86 48.56C86 27.8364 69.1905 11 48.5 11ZM48.5 14.4145C67.3481 14.4145 82.5909 29.6817 82.5909 48.56C82.5909 65.1714 70.7201 78.8331 55.0518 81.9085V59.7673H64.074L66.0548 46.9294H55.0518V43.4849C55.0518 41.7136 55.3754 40.1266 55.9208 39.1734C56.4661 38.2201 56.9918 37.8062 58.2812 37.8062H65.8617V26.3821L64.3836 26.1821C63.3612 26.0435 61.027 25.7186 56.8163 25.7186C52.2088 25.7186 48.2538 26.9757 45.5237 29.82C42.7936 32.6643 41.4454 36.8996 41.4454 42.3678V46.9328H32.5865V59.7707H41.4454V81.8018C26.029 78.5309 14.4091 64.9916 14.4091 48.56C14.4091 29.6817 29.6519 14.4145 48.5 14.4145Z" fill="#003F7E"/>
</svg>
